# AST/ASF file generated using VICON BodyLanguage
# -----------------------------------------------
:version 1.10
:name VICON
:units
  mass 1.0
  length 0.45
  angle deg
:documentation
   .ast/.asf automatically generated from VICON data using
   VICON BodyBuilder and BodyLanguage model FoxedUp or BRILLIANT.MOD
:root
   order TX TY TZ RX RY RZ
   axis XYZ
   position 0 0 0  
   orientation 0 0 0 
:bonedata
  begin
     id 1 
     name lhipjoint
     direction 0.623415 -0.642378 0.445763 
     length 2.49859 
     axis 0 0 0  XYZ
  end
  begin
     id 2 
     name lfemur
     direction 0.34202 -0.939693 0  
     length 6.69689  
     axis 0 0 20  XYZ
    dof rx ry rz
    limits (-160.0 20.0)
           (-70.0 70.0)
           (-60.0 70.0)
  end
  begin
     id 3 
     name ltibia
     direction 0.34202 -0.939693 0   
     length 7.37574   
     axis 0 0 20   XYZ
    dof rx
    limits (-10.0 170.0)
  end
  begin
     id 4 
     name lfoot
     direction 0.084323 -0.231675 0.969132   
     length 2.09111   
     axis -90 7.62852e-016 20   XYZ
    dof rx rz
    limits (-45.0 90.0)
           (-70.0 20.0)
  end
  begin
     id 5 
     name ltoes
     direction 1.5357e-011 -4.21957e-011 1   
     length 1.04989   
     axis -90 7.62852e-016 20   XYZ
    dof rx
    limits (-90.0 20.0)
  end
  begin
     id 6 
     name rhipjoint
     direction -0.605402 -0.653903 0.45376   
     length 2.45455  
     axis 0 0 0  XYZ 
  end
  begin
     id 7 
     name rfemur
     direction -0.34202 -0.939693 0   
     length 6.64523   
     axis 0 0 -20   XYZ
    dof rx ry rz
    limits (-160.0 20.0)
           (-70.0 70.0)
           (-70.0 60.0)
  end
  begin
     id 8 
     name rtibia
     direction -0.34202 -0.939693 0   
     length 7.3339   
     axis 0 0 -20   XYZ
    dof rx
    limits (-10.0 170.0)
 end
 begin
     id 9 
     name rfoot
     direction -0.120854 -0.332043 0.93549   
     length 2.23135  
     axis -90 -7.62852e-016 -20   XYZ
    dof rx rz
    limits (-45.0 90.0)
           (-20.0 70.0)
  end
  begin
     id 10 
     name rtoes
     direction -1.53563e-011 -4.21914e-011 1   
     length 1.10614   
     axis -90 -7.62852e-016 -20   XYZ
    dof rx
    limits (-90.0 20.0)
  end
  begin
     id 11 
     name lowerback
     direction 0.0319682 0.998615 -0.0417941   
     length 2.02718   
     axis 0 0 0   XYZ
    dof rx ry rz
    limits (-20.0 45.0)
           (-30.0 30.0)
           (-30.0 30.0)
  end
  begin
     id 12 
     name upperback
     direction 7.63181e-005 0.995808 0.0914691   
     length 1.97539   
     axis 0 0 0   XYZ
    dof rx ry rz
    limits (-20.0 45.0)
           (-30.0 30.0)
           (-30.0 30.0)
  end
  begin
     id 13 
     name thorax
     direction -0.016423 0.993627 0.111514   
     length 2.00349   
     axis 0 0 0   XYZ
    dof rx ry rz
    limits (-20.0 45.0)
           (-30.0 30.0)
           (-30.0 30.0)
  end
  begin
     id 14 
     name lowerneck
     direction -0.174763 0.981668 -0.0760716   
     length 1.71436   
     axis 0 0 0   XYZ
    dof rx ry rz
    limits (-20.0 45.0)
           (-30.0 30.0)
           (-30.0 30.0)
  end
  begin
     id 15 
     name upperneck
     direction 0.345458 0.934587 -0.0848868   
     length 1.72805   
     axis 0 0 0   XYZ
    dof rx ry rz
    limits (-20.0 45.0)
           (-30.0 30.0)
           (-30.0 30.0)
  end
  begin
     id 16
     name head
     direction 0.13001 0.989848 -0.0574291  
     length 1.767  
     axis 0 0 0   XYZ
    dof rx ry rz
    limits (-20.0 45.0)
           (-30.0 30.0)
           (-30.0 30.0)
  end
  begin
     id 17 
     name lclavicle
     direction 0.952951 0.290122 0.0878234  
     length 3.54654  
     axis 0 0 0   XYZ
    dof ry rz
    limits (-20.0 10.0)
           (0.0 20.0)
  end
  begin
     id 18 
     name lhumerus
     direction 1 -4.48957e-011 -4.56525e-028   
     length 5.19807   
     axis 180 -30 -90   XYZ
    dof rx ry rz
    limits (-60.0 90.0)
           (-90.0 90.0)
           (-90.0 90.0)
  end
  begin
     id 19
     name lradius
     direction 1 -4.48979e-011 -2.0317e-027   
     length 3.0937   
     axis 180 -30 -90   XYZ
    dof rx
    limits (-10.0 170.0)
  end
  begin
     id 20
     name lwrist
     direction 1 -4.48953e-011 -3.05809e-027   
     length 1.54685   
     axis 8.48514e-016 90 90   XYZ
    dof ry
    limits (-180.0 0.0)
 end
  begin
     id 21 
     name lhand
     direction 1 -4.48952e-011 -6.11639e-027   
     length 0.672632   
     axis 3.9013e-015 90 90   XYZ
    dof rx rz
    limits (-90.0 90.0)
           (-45.0 45.0)
  end
  begin
     id 22 
     name lfingers
     direction 1 -4.48925e-011 -1.22426e-026   
     length 0.542293   
     axis 7.80276e-015 90 90   XYZ
    dof rx
    limits (0.0 90.0)
  end
  begin
     id 23
     name lthumb
     direction 0.707107 -6.3486e-011 0.707107   
     length 0.778628   
     axis -90 45 5.37419e-014   XYZ
    dof rx rz
    limits (-45.0 45.0)
           (-45.0 45.0)
  end
  begin
     id 24 
     name rclavicle
     direction -0.960732 0.273675 -0.0457849   
     length 3.52079  
     axis 0 0 0   XYZ 
    dof ry rz
    limits (-10.0 20.0)
           (-20.0 0.0)
  end
  begin
     id 25 
     name rhumerus
     direction -1 -4.48976e-011 -1.63613e-027  
     length 5.45222   
     axis 180 30 90   XYZ
    dof rx ry rz
    limits (-90.0 60.0)
           (-90.0 90.0)
           (-90.0 90.0)
  end
  begin
     id 26 
     name rradius
     direction -1 -4.48957e-011 -7.00033e-028   
     length 3.01284   
     axis 180 30 90   XYZ
    dof rx
    limits (-10.0 170.0)
  end
  begin
     id 27 
     name rwrist
     direction -1 -4.48983e-011 -3.05543e-027   
     length 1.50642   
     axis 8.48514e-016 -90 -90   XYZ
    dof ry
    limits (-180.0 0.0)
  end
  begin
     id 28
     name rhand
     direction -1 -4.48984e-011 -6.11072e-027   
     length 0.622296   
     axis 3.9013e-015 -90 -90   XYZ
    dof rx rz
    limits (-90.0 90.0)
           (-45.0 45.0)
  end
  begin
     id 29
     name rfingers
     direction -1 -4.48865e-011 -1.22637e-026   
     length 0.501711   
     axis 7.80276e-015 -90 -90   XYZ
    dof rx
    limits (0.0 90.0)
  end
  begin
     id 30
     name rthumb
     direction -0.707107 -6.34932e-011 0.707107   
     length 0.72036   
     axis -90 -45 -5.37419e-014   XYZ
    dof rx rz
    limits (-45.0 45.0)
           (-45.0 45.0)
  end
:hierarchy
  begin
    root lhipjoint rhipjoint lowerback
    lhipjoint lfemur
    lfemur ltibia
    ltibia lfoot
    lfoot ltoes
    rhipjoint rfemur
    rfemur rtibia
    rtibia rfoot
    rfoot rtoes
    lowerback upperback
    upperback thorax
    thorax lowerneck lclavicle rclavicle
    lowerneck upperneck
    upperneck head
    lclavicle lhumerus
    lhumerus lradius
    lradius lwrist
    lwrist lhand lthumb
    lhand lfingers
    rclavicle rhumerus
    rhumerus rradius
    rradius rwrist
    rwrist rhand rthumb
    rhand rfingers
  end

#!OML:ASF H:\Not Pregnant\Project 1\Capture day 1\Session 1\non-pregnant.ASF
:FULLY-SPECIFIED
:DEGREES
346
root 1.95382 2.57835 18.6283 -48.1074 -25.5077 17.0022
lowerback 55.3375 -3.30555 4.04402
upperback 12.2648 -2.57372 -1.12888
thorax -7.4782 -1.33033 -1.90688
lowerneck 22.7193 -9.62831 -28.0037
upperneck -6.75617 -18.2297 37.5063
head 0.967678 -11.3459 18.7356
rclavicle 1.27222e-014 4.77083e-014
rhumerus -35.7562 7.12165 -80.5089
rradius 55.2305
rwrist 20.4588
rhand -62.8644 10.1848
rfingers 7.12502
rthumb -34.8743 -16.4005
lclavicle 1.27222e-014 4.77083e-014
lhumerus 2.42176 -22.2379 40.8116
lradius 78.5728
lwrist 42.9987
lhand -18.5831 -27.2086
lfingers 7.12502
lthumb 7.7076 2.63089
rfemur -102.28 -18.4357 66.7956
rtibia 145.259
rfoot -16.7235 -13.2829
rtoes 7.34949
lfemur -92.8747 13.2181 -15.7293
ltibia 114.567
lfoot 13.5932 -36.0584
ltoes -15.096
347
root 1.97366 2.55845 18.6104 -48.5517 -25.1986 16.7216
lowerback 55.2505 -3.58129 4.67196
upperback 12.3416 -2.5544 -1.21173
thorax -7.38504 -1.2954 -2.29065
lowerneck 23.212 -9.54205 -28.0554
upperneck -6.49681 -18.2832 37.3699
head 0.95724 -11.3942 18.7259
rclavicle 5.56597e-014 1.27222e-014
rhumerus -36.1353 7.70669 -80.5989
rradius 55.6688
rwrist 19.5514
rhand -62.5406 9.8852
rfingers 7.12502
rthumb -34.567 -16.7709
lclavicle 5.56597e-014 1.27222e-014
lhumerus 0.0161036 -23.4752 42.2406
lradius 78.8351
lwrist 42.9668
lhand -19.6298 -27.7258
lfingers 7.12502
lthumb 6.69718 2.1483
rfemur -102.5 -21.2507 67.2374
rtibia 145.358
rfoot -17.1876 -12.0258
rtoes 7.1991
lfemur -92.1517 12.9589 -15.6198
ltibia 114.136
lfoot 15.2817 -35.36
ltoes -14.2464
348
root 1.99435 2.53935 18.5979 -48.9503 -24.9268 16.3864
lowerback 55.0775 -3.90989 5.39968
upperback 12.4411 -2.55261 -1.31729
thorax -7.25827 -1.26337 -2.73796
lowerneck 23.6774 -9.47533 -28.0522
upperneck -6.27219 -18.3343 37.236
head 0.936284 -11.4408 18.7042
rclavicle -1.51076e-014 9.54166e-015
rhumerus -36.5057 8.23595 -80.7011
rradius 56.0962
rwrist 18.6606
rhand -62.2381 9.78496
rfingers 7.12502
rthumb -34.2798 -16.9362
lclavicle -1.51076e-014 9.54166e-015
lhumerus -2.45253 -24.6997 43.6787
lradius 79.0321
lwrist 42.8596
lhand -20.4897 -27.727
lfingers 7.12502
lthumb 5.86702 2.17177
rfemur -102.877 -24.0627 67.7525
rtibia 145.47
rfoot -17.5626 -10.7304
rtoes 6.94453
lfemur -91.4548 12.6892 -15.3845
ltibia 113.739
lfoot 17.1761 -34.3477
ltoes -12.799
349
root 2.01545 2.52157 18.5896 -49.3368 -24.6833 16.0208
lowerback 54.8554 -4.26663 6.17326
upperback 12.5609 -2.56834 -1.43331
thorax -7.10263 -1.23592 -3.21066
lowerneck 24.0874 -9.42644 -28.0185
upperneck -6.05698 -18.387 37.0931
head 0.919032 -11.4838 18.6646
rclavicle -3.89618e-014 7.95139e-014
rhumerus -36.8488 8.7248 -80.806
rradius 56.5005
rwrist 17.8272
rhand -61.9735 9.79459
rfingers 7.12502
rthumb -34.0286 -16.9828
lclavicle -3.89618e-014 7.95139e-014
lhumerus -5.015 -25.8681 45.1456
lradius 79.1907
lwrist 42.8719
lhand -21.034 -27.2428
lfingers 7.12502
lthumb 5.34148 2.66991
rfemur -103.336 -26.902 68.3192
rtibia 145.597
rfoot -17.9215 -9.38232
rtoes 6.56838
lfemur -90.7487 12.4195 -15.0356
ltibia 113.353
lfoot 19.309 -32.9769
ltoes -10.4926
350
root 2.03551 2.50522 18.5817 -49.7652 -24.4795 15.6555
lowerback 54.6695 -4.60389 6.89049
upperback 12.6753 -2.59214 -1.52388
thorax -6.95253 -1.21464 -3.62557
lowerneck 24.4427 -9.35663 -28.0403
upperneck -5.82093 -18.4218 36.9419
head 0.915821 -11.5123 18.6279
rclavicle -1.11319e-014 9.54166e-015
rhumerus -37.1664 9.25287 -80.8989
rradius 56.8817
rwrist 17.0658
rhand -61.7556 9.6243
rfingers 7.12502
rthumb -33.8216 -17.1989
lclavicle -1.11319e-014 9.54166e-015
lhumerus -7.76441 -26.9158 46.6968
lradius 79.3363
lwrist 43.1282
lhand -21.2113 -26.3534
lfingers 7.12502
lthumb 5.17032 3.56349
rfemur -103.8 -29.7791 68.8996
rtibia 145.721
rfoot -18.2961 -7.93275
rtoes 6.23282
lfemur -89.9621 12.1967 -14.5597
ltibia 112.935
lfoot 21.5598 -31.3853
ltoes -7.39046
351
root 2.05317 2.48952 18.5717 -50.2411 -24.3155 15.3222
lowerback 54.5305 -4.88364 7.49313
upperback 12.7783 -2.60808 -1.58397
thorax -6.81615 -1.19457 -3.95773
lowerneck 24.7446 -9.26016 -28.1262
upperneck -5.55133 -18.4376 36.79
head 0.931321 -11.5265 18.5996
rclavicle -3.02153e-014 -3.18055e-015
rhumerus -37.4683 9.82734 -80.9897
rradius 57.2596
rwrist 16.3858
rhand -61.5597 9.18924
rfingers 7.12502
rthumb -33.6354 -17.6747
lclavicle -3.02153e-014 -3.18055e-015
lhumerus -10.7045 -27.8476 48.3284
lradius 79.4785
lwrist 43.6674
lhand -21.0821 -25.1383
lfingers 7.12502
lthumb 5.29503 4.77554
rfemur -104.242 -32.5673 69.4393
rtibia 145.831
rfoot -18.6639 -6.4313
rtoes 6.09843
lfemur -89.0955 12.0446 -13.9588
ltibia 112.445
lfoot 23.9619 -29.6247
ltoes -3.14964
352
root 2.06696 2.47385 18.556 -50.7884 -24.2008 15.0467
lowerback 54.4912 -5.06697 7.93416
upperback 12.8563 -2.58818 -1.60828
thorax -6.71273 -1.16536 -4.19104
lowerneck 25.0142 -9.14523 -28.2405
upperneck -5.26499 -18.4348 36.6286
head 0.952247 -11.5282 18.5713
rclavicle -4.85035e-014 -3.49861e-014
rhumerus -37.7557 10.4126 -81.0805
rradius 57.6281
rwrist 15.7946
rhand -61.365 8.58143
rfingers 7.12502
rthumb -33.4503 -18.3227
lclavicle -4.85035e-014 -3.49861e-014
lhumerus -13.8141 -28.664 50.0334
lradius 79.6161
lwrist 44.5335
lhand -20.6675 -23.7426
lfingers 7.12502
lthumb 5.6954 6.16086
rfemur -104.541 -35.1866 69.8871
rtibia 145.891
rfoot -19.0222 -4.94588
rtoes 6.02343
lfemur -88.1087 11.9951 -13.2199
ltibia 111.839
lfoot 26.4112 -27.9397
ltoes 1.93822
353
root 2.07646 2.4577 18.5338 -51.4147 -24.1103 14.8564
lowerback 54.5541 -5.14564 8.20108
upperback 12.9103 -2.52966 -1.62047
thorax -6.64414 -1.12479 -4.34727
lowerneck 25.2634 -9.02237 -28.3535
upperneck -4.96392 -18.4211 36.4738
head 0.977581 -11.5241 18.5457
rclavicle 0 -2.54444e-014
rhumerus -38.0395 10.961 -81.1938
rradius 57.9929
rwrist 15.2919
rhand -61.1534 7.8691
rfingers 7.12502
rthumb -33.2492 -19.0782
lclavicle 0 -2.54444e-014
lhumerus -17.0412 -29.395 51.7763
lradius 79.7237
lwrist 45.6318
lhand -20.0801 -22.3093
lfingers 7.12502
lthumb 6.26249 7.57815
rfemur -104.666 -37.5696 70.2016
rtibia 145.876
rfoot -19.331 -3.58663
rtoes 5.70099
lfemur -86.9888 12.0243 -12.3705
ltibia 111.09
lfoot 28.9381 -26.4106
ltoes 7.70757
354
root 2.08121 2.4397 18.5051 -52.0728 -24.0456 14.7488
lowerback 54.6666 -5.10755 8.31101
upperback 12.9417 -2.41301 -1.6248
thorax -6.60359 -1.06298 -4.44884
lowerneck 25.5059 -8.91403 -28.4206
upperneck -4.65927 -18.4131 36.3228
head 1.00288 -11.5239 18.5114
rclavicle -7.95139e-016 6.36111e-015
rhumerus -38.3248 11.4185 -81.3367
rradius 58.3482
rwrist 14.8685
rhand -60.9169 7.14981
rfingers 7.12502
rthumb -33.0243 -19.8453
lclavicle -7.95139e-016 6.36111e-015
lhumerus -20.3266 -30.0712 53.5371
lradius 79.7665
lwrist 46.8157
lhand -19.4094 -20.9655
lfingers 7.12502
lthumb 6.91 8.90176
rfemur -104.638 -39.5445 70.352
rtibia 145.802
rfoot -19.5594 -2.39304
rtoes 5.30364
lfemur -85.7925 12.1227 -11.4112
ltibia 110.198
lfoot 31.5879 -25.067
ltoes 13.8255
355
root 2.08403 2.42064 18.4749 -52.7099 -23.9877 14.6717
lowerback 54.7364 -5.02505 8.38574
upperback 12.975 -2.26976 -1.65228
thorax -6.55782 -0.987677 -4.57298
lowerneck 25.7455 -8.83976 -28.4161
upperneck -4.35829 -18.4289 36.1885
head 1.03109 -11.5382 18.4676
rclavicle 2.78299e-014 -6.36111e-014
rhumerus -38.6115 11.7326 -81.516
rradius 58.694
rwrist 14.5233
rhand -60.6572 6.38808
rfingers 7.12502
rthumb -32.7773 -20.6589
lclavicle 2.78299e-014 -6.36111e-014
lhumerus -23.6045 -30.732 55.2926
lradius 79.7122
lwrist 47.9421
lhand -18.7788 -19.8068
lfingers 7.12502
lthumb 7.51864 10.0396
rfemur -104.49 -41.2214 70.4504
rtibia 145.65
rfoot -19.7584 -1.48008
rtoes 4.08732
lfemur -84.5856 12.1887 -10.3563
ltibia 109.187
lfoot 34.3991 -23.6912
ltoes 20.1909
356
root 2.08742 2.40145 18.4461 -53.2834 -23.9277 14.573
lowerback 54.7038 -4.96723 8.5318
upperback 13.0171 -2.13053 -1.72233
thorax -6.4947 -0.908154 -4.77647
lowerneck 25.9981 -8.79934 -28.3383
upperneck -4.06071 -18.4709 36.075
head 1.06084 -11.5694 18.4179
rclavicle 7.95139e-016 2.54444e-014
rhumerus -38.9131 11.8868 -81.7324
rradius 59.0361
rwrist 14.2473
rhand -60.3433 5.65119
rfingers 7.12502
rthumb -32.4786 -21.4576
lclavicle 7.95139e-016 2.54444e-014
lhumerus -26.8557 -31.3995 57.0486
lradius 79.5471
lwrist 48.8829
lhand -18.2775 -18.8547
lfingers 7.12502
lthumb 8.00252 10.9738
rfemur -104.407 -42.7774 70.5414
rtibia 145.512
rfoot -19.9567 -0.572594
rtoes 2.61505
lfemur -83.4214 12.1518 -9.21783
ltibia 108.087
lfoot 37.2727 -22.1183
ltoes 26.3514
357
root 2.09384 2.3841 18.4199 -53.8293 -23.8355 14.4328
lowerback 54.6265 -4.98353 8.78305
upperback 13.0538 -2.02913 -1.84115
thorax -6.43617 -0.839431 -5.06479
lowerneck 26.2688 -8.7816 -28.2201
upperneck -3.75814 -18.5374 35.98
head 1.09625 -11.6167 18.3684
rclavicle 5.1684e-015 -3.81667e-014
rhumerus -39.2536 11.909 -81.9718
rradius 59.3899
rwrist 14.0279
rhand -59.9755 4.92108
rfingers 7.12502
rthumb -32.1285 -22.259
lclavicle 5.1684e-015 -3.81667e-014
lhumerus -30.0923 -32.0502 58.8347
lradius 79.2665
lwrist 49.6102
lhand -17.9323 -18.0877
lfingers 7.12502
lthumb 8.33566 11.7278
rfemur -104.458 -44.5312 70.6576
rtibia 145.41
rfoot -20.2254 0.523944
rtoes 1.15378
lfemur -82.2564 11.9396 -8.03697
ltibia 106.917
lfoot 39.9605 -20.3536
ltoes 31.6827
358
root 2.10365 2.36892 18.3958 -54.3648 -23.739 14.2313
lowerback 54.5415 -5.08177 9.14398
upperback 13.0752 -1.96697 -1.98834
thorax -6.39427 -0.784422 -5.41584
lowerneck 26.5627 -8.75958 -28.1093
upperneck -3.44552 -18.6089 35.9004
head 1.13569 -11.6699 18.3309
rclavicle 3.22031e-014 -3.18055e-014
rhumerus -39.6366 11.8512 -82.219
rradius 59.7581
rwrist 13.8523
rhand -59.5614 4.20771
rfingers 7.12502
rthumb -31.7342 -23.0512
lclavicle 3.22031e-014 -3.18055e-014
lhumerus -33.3409 -32.6308 60.6811
lradius 78.8954
lwrist 50.188
lhand -17.7263 -17.4576
lfingers 7.12502
lthumb 8.53449 12.3499
rfemur -104.598 -46.5016 70.8122
rtibia 145.326
rfoot -20.5534 1.81704
rtoes -0.369578
lfemur -81.0749 11.5709 -6.7972
ltibia 105.69
lfoot 42.3017 -18.5974
ltoes 35.7365
359
root 2.11741 2.35671 18.3733 -54.9318 -23.6025 13.9934
lowerback 54.4845 -5.26565 9.60891
upperback 13.0904 -1.95014 -2.18244
thorax -6.36344 -0.743952 -5.84421
lowerneck 26.8756 -8.74404 -27.9903
upperneck -3.14122 -18.6906 35.8523
head 1.17701 -11.7327 18.3092
rclavicle -1.35174e-014 -4.29375e-014
rhumerus -40.0488 11.6804 -82.4739
rradius 60.1436
rwrist 13.7166
rhand -59.2625 3.16339
rfingers 7.12502
rthumb -31.4495 -24.1514
lclavicle -1.35174e-014 -4.29375e-014
lhumerus -36.5343 -33.1485 62.5433
lradius 78.447
lwrist 50.6691
lhand -17.6024 -16.9039
lfingers 7.12502
lthumb 8.65404 12.8987
rfemur -104.867 -48.7059 70.975
rtibia 145.238
rfoot -20.8829 3.28145
rtoes -1.83193
lfemur -79.8402 11.0208 -5.56398
ltibia 104.412
lfoot 44.1327 -16.9955
ltoes 38.4775
360
root 2.131 2.34298 18.3494 -55.5044 -23.4872 13.7593
lowerback 54.4501 -5.42529 10.0716
upperback 13.0916 -1.90201 -2.37335
thorax -6.3452 -0.689292 -6.28107
lowerneck 27.2046 -8.73666 -27.8614
upperneck -2.85398 -18.7809 35.8259
head 1.21637 -11.8034 18.298
rclavicle 3.73715e-014 -7.15625e-014
rhumerus -40.4819 11.4108 -82.7248
rradius 60.5507
rwrist 13.6066
rhand -58.9187 2.24954
rfingers 7.12502
rthumb -31.1218 -25.1286
lclavicle 3.73715e-014 -7.15625e-014
lhumerus -39.6461 -33.575 64.4062
lradius 77.9432
lwrist 51.1194
lhand -17.4711 -16.3982
lfingers 7.12502
lthumb 8.78073 13.3991
rfemur -105.064 -50.6485 71.0554
rtibia 145.105
rfoot -21.1141 4.63769
rtoes -5.58028
lfemur -78.599 10.4501 -4.30778
ltibia 103.096
lfoot 45.4707 -15.8113
ltoes 39.9855
